<svg xmlns="http://www.w3.org/2000/svg" viewBox="0 0 96 96" width="96" height="96">
  <defs>
    <linearGradient id="vnBg" x1="0" y1="0" x2="0" y2="1">
      <stop offset="0" stop-color="#e9f5ef"/>
      <stop offset="1" stop-color="#cbe7da"/>
    </linearGradient>
    <linearGradient id="vnBar" x1="0" y1="0" x2="0" y2="1">
      <stop offset="0" stop-color="#84cdb0"/>
      <stop offset="1" stop-color="#3a9b76"/>
    </linearGradient>
  </defs>
  <rect x="8" y="8" width="80" height="80" rx="20" fill="url(#vnBg)"/>
  <rect x="9.5" y="9.5" width="77" height="77" rx="18.5" fill="none" stroke="#ffffff" stroke-opacity="0.45" stroke-width="1.5"/>
  <line x1="18" y1="72" x2="78" y2="72" stroke="#9ec9b9" stroke-width="1"/>
  <g fill="url(#vnBar)">
    <rect x="22" y="58" width="9" height="14" rx="1.5"/>
    <rect x="33" y="46" width="9" height="26" rx="1.5"/>
    <rect x="44" y="36" width="9" height="36" rx="1.5"/>
    <rect x="55" y="46" width="9" height="26" rx="1.5"/>
    <rect x="66" y="58" width="9" height="14" rx="1.5"/>
  </g>
  <g fill="#bfe6d6" opacity="0.8">
    <rect x="22" y="58" width="9" height="3" rx="1.5"/>
    <rect x="33" y="46" width="9" height="3" rx="1.5"/>
    <rect x="44" y="36" width="9" height="3" rx="1.5"/>
    <rect x="55" y="46" width="9" height="3" rx="1.5"/>
    <rect x="66" y="58" width="9" height="3" rx="1.5"/>
  </g>
  <path d="M16,72 C30,70 38,30 48,28 C58,30 66,70 80,72 Z" fill="#23845f" opacity="0.14"/>
  <path d="M16,72 C30,70 38,30 48,28 C58,30 66,70 80,72" fill="none" stroke="#1b6e4f" stroke-width="4.5" stroke-linecap="round" stroke-linejoin="round"/>
  <circle cx="48" cy="28" r="4.5" fill="#1b6e4f"/>
  <circle cx="46.5" cy="26.5" r="1.8" fill="#cdeadd"/>
</svg>
